<svg xmlns="http://www.w3.org/2000/svg" xmlns:xlink="http://www.w3.org/1999/xlink" viewBox="0 0 106.08 106.08"><defs><style>.a{fill:#050000;}.b{fill:#fff;}.c{fill:url(#a);}.d{fill:url(#b);}.e{fill:url(#c);}.f{fill:#1d1d1b;}</style><linearGradient id="a" x1="30.22" y1="22.66" x2="51.89" y2="75.86" gradientUnits="userSpaceOnUse"><stop offset="0" stop-color="#fcee21"/><stop offset="1" stop-color="#29cfe2"/></linearGradient><linearGradient id="b" x1="59.68" y1="10.66" x2="81.35" y2="63.86" xlink:href="#a"/><linearGradient id="c" x1="37.19" y1="19.82" x2="58.87" y2="73.02" xlink:href="#a"/></defs><rect class="a" width="106.08" height="106.08"/><path class="b" d="M78.74,82.34l-.65-.76a38.33,38.33,0,0,0,4.53-53.41l.78-.63a39.34,39.34,0,0,1-4.66,54.8Z"/><path class="b" d="M26.1,81.22a39.33,39.33,0,0,1-4.83-51.86l.81.59a38.33,38.33,0,0,0,4.7,50.54Z"/><path class="c" d="M33.68,34.28l5.55-1.45c-.14-.23-.27-.44-.4-.69a.92.92,0,0,1-.11-.37l-6.09,1.59-.05.39c-.24,2-.37,3.82-.43,5.62l1.18-.7C33.4,37.24,33.51,35.78,33.68,34.28Z"/><path class="d" d="M65.21,32.27h0L72,33.91c.16,1.57.25,3.09.3,4.58a6.62,6.62,0,0,0,1.17,3.22,66.37,66.37,0,0,0-.36-8.33l0-.4-9.43-2.29C64.13,31.25,64.65,31.79,65.21,32.27Z"/><path class="e" d="M82,54.47a18.68,18.68,0,0,0-8.18-11.12,3.85,3.85,0,0,1-1-1,5.3,5.3,0,0,1-1.21-3.47,3.83,3.83,0,0,0-.92,2,10.58,10.58,0,0,1-3.33,5.7A8.54,8.54,0,0,1,62.55,49c-.41.06-.62,0-.47-.5a18.5,18.5,0,0,0,.63-3.28,5.11,5.11,0,0,0,.88,2c.12.15.25.38.45.32s.12-.34.11-.51a19.91,19.91,0,0,1,.19-4.69,17.85,17.85,0,0,0,0-5.65A9.89,9.89,0,0,1,64,34.88a3.7,3.7,0,0,0,3.54-.25,5,5,0,0,1-2.79-1.52c-1.29-1.1-2.25-2.55-3.93-3.44a4.48,4.48,0,0,0,1.34-.5c.17-.13.41-.27.36-.49s-.8.91-5.69-1.05a8.1,8.1,0,0,0-3.18-.75c-.4,0-.48-.1-.31-.49a12.58,12.58,0,0,0,.88-3.09,12,12,0,0,0,.09-3c-.5,1.3-.4,1.1-.83,2.27A6.56,6.56,0,0,1,51.39,26c-.15.14-.3.39-.53.28s0-.35,0-.54a19.36,19.36,0,0,0-.13-2.78c-.16.19-1,2.5-1.84,3.37a1.32,1.32,0,0,1-.8.43,2.55,2.55,0,0,0-1.91,1.05,4.11,4.11,0,0,1-1.57,1.5c-.33.18-.41.74-1,.6-.24-.07-.52,0-.74-.16a.31.31,0,0,0-.5.05,6.52,6.52,0,0,1-2.52,1.75c-.23.1-.36.24-.22.5A7.68,7.68,0,0,0,42,34.86c.1.07.22.19.35.12s.07-.27,0-.41a6.61,6.61,0,0,1-.26-1.44c.35.26.53.6.88.74s.37.09.34-.24c-.08-.89-.07-.89.81-.93a12.13,12.13,0,0,0,5.5-1.17c.41-.23.49,0,.46.35a3.12,3.12,0,0,1-.54,1.44c-.08.14-.18.16-.36.16A3.8,3.8,0,0,0,45.9,35a7.43,7.43,0,0,1-.6.76.89.89,0,0,1-1.52,0c-.09-.09-.15-.25-.3-.22s-.19.23-.18.37a3.39,3.39,0,0,0,.06.64c.24,1.31,1.29,1.86,2.3,2.44.28.17.32-.08.34-.28a2.65,2.65,0,0,1,1.61-2.18,9.75,9.75,0,0,1,3.62-1.09c1.58-.18,2.85-.77,3.15-2.72A2.59,2.59,0,0,0,55,34.59a5.15,5.15,0,0,1,1,2.93,3.86,3.86,0,0,0-.32-.56c-.16-.22-.32-.55-.63-.44s-.15.41-.16.64a9.65,9.65,0,0,1-1.26,4.48c-.08.14-.11.34-.34.33-.23-.34-.24-.79-.65-1.22a8.2,8.2,0,0,1-1,2.41,22.89,22.89,0,0,1-3,3.86,4,4,0,0,1-2.51,1.19,5.84,5.84,0,0,1-5.69-2.71,15.5,15.5,0,0,1-2.36-6c-.19-.9-.23-1.83-.38-2.74a3.06,3.06,0,0,0-.63-1.45,4.76,4.76,0,0,1-2.78,4.06,3.3,3.3,0,0,1-.42.23c-7,3.33-10.77,9-11.07,16.69a18,18,0,0,0,5.63,13.81A12.73,12.73,0,0,0,30.78,72c0-.09.08-.13.07-.16s-.07-.33-.11-.5a21.71,21.71,0,0,1-.94-6.94,7.64,7.64,0,0,1,1-4,1.78,1.78,0,0,1,2.5-.73,5.21,5.21,0,0,1,1.15.76c-1.09-1.93-.17-5,2.72-5a3.14,3.14,0,0,1,1.77.51,10,10,0,0,1,.21-1.22c.14-.52.38-1,1-1a1.34,1.34,0,0,1,1.46.72c.28.57.41.34.64,0a7.78,7.78,0,0,1,2.35-2.56,7.46,7.46,0,0,1-.53.87c-.2.31-.42.61-.59.93a18.89,18.89,0,0,0-2,12.25,2.61,2.61,0,0,0,.06.27A40.92,40.92,0,0,1,38,60.63a39.56,39.56,0,0,1-1.91-4.13,3.11,3.11,0,0,0-.87.9C38.94,66.54,45.7,73,52.91,78.62l.36.28.36-.29c7.44-6,12.15-11.45,15.29-17.67.2-.4.39-.82.58-1.23a3.23,3.23,0,0,0-1.16-.27c-.15.33-.29.66-.45,1a40.81,40.81,0,0,1-3,5.07c-4.4,4.12-7.54,1.18-7.36-1.45a15.16,15.16,0,0,1,.26-1.86,29.54,29.54,0,0,0-2.42,3,13,13,0,0,1,1.15-3,14.34,14.34,0,0,1,4.42-5.46,5.14,5.14,0,0,1,3.51-1,2.09,2.09,0,0,1,2.06,1.56,4,4,0,0,1,.2,1.72l0,.18a3.12,3.12,0,0,1,1.75-.5c3,0,3.84,3.2,2.66,5.13a4.84,4.84,0,0,1,.73-.25,1.65,1.65,0,0,1,2.16,1,6.38,6.38,0,0,1,.55,3.08,20.6,20.6,0,0,1-2.08,7.8c-.09.19-.28.38-.17.63a.84.84,0,0,0,.51-.17A18.78,18.78,0,0,0,82,54.47Z"/><path class="f" d="M46.64,29.59l.34-.65a1.08,1.08,0,0,1,.68-.54L49,28.07l-.34.7a1,1,0,0,1-.76.58Z"/><polygon class="a" points="54.8 55.34 57.6 56.37 56.74 54.29 53.88 53.12 54.8 55.34"/><polygon class="a" points="53.45 53.31 52.27 56.16 53.13 58.23 54.36 55.52 53.45 53.31"/><polygon class="a" points="54.08 52.67 56.94 53.86 59 53 56.28 51.75 54.08 52.67"/><polygon class="a" points="50.75 54.05 49.72 56.86 51.79 56 52.96 53.13 50.75 54.05"/><polygon class="a" points="53.42 52.01 54.61 49.16 53.75 47.09 52.5 49.8 53.42 52.01"/><polygon class="a" points="52.78 52.7 49.92 51.5 47.85 52.36 50.57 53.62 52.78 52.7"/><polygon class="a" points="52.06 49.98 49.27 48.95 50.13 51.01 52.98 52.19 52.06 49.98"/><polygon class="a" points="56.1 51.32 57.13 48.51 55.07 49.37 53.9 52.23 56.1 51.32"/><rect class="a" x="48.22" y="54.04" width="1.1" height="1.1" transform="translate(-20.3 78.82) rotate(-67.55)"/><rect class="a" x="57.51" y="50.19" width="1.1" height="1.1" transform="translate(-11.01 85.02) rotate(-67.55)"/><rect class="a" x="54.79" y="56.75" width="1.1" height="1.1" transform="translate(-18.75 86.57) rotate(-67.55)"/><rect class="a" x="50.94" y="47.47" width="1.1" height="1.1" transform="translate(-12.56 77.27) rotate(-67.55)"/><path class="b" d="M23.39,21.85l1-1,5.36,5.73-1,.95Z"/><path class="b" d="M26.56,19l1.19-.8,4.49,2.27,1.62.93,0,0c-.51-.63-1.17-1.39-1.66-2.11L30.33,16.4l1.09-.75,4.42,6.49-1.19.8-4.5-2.28-1.61-.92,0,0c.53.65,1.15,1.37,1.64,2.09l1.94,2.84-1.1.74Z"/><path class="b" d="M34.22,14.22l4.35-1.87L39,13.42,36,14.74l.88,2,2.62-1.12.46,1.07L37.3,17.86l1.29,3-1.28.55Z"/><path class="b" d="M41.26,15.47c-.55-2.47.51-4.24,2.5-4.68S47.47,11.51,48,14s-.49,4.31-2.49,4.75S41.81,18,41.26,15.47Zm5.36-1.18C46.24,12.57,45.23,11.7,44,12s-1.75,1.48-1.37,3.2,1.41,2.64,2.61,2.38S47,16,46.62,14.29Z"/><path class="b" d="M49.52,16.81l.79-1a3.07,3.07,0,0,0,2.06.86c.89,0,1.36-.43,1.35-1s-.52-.84-1.24-1.13l-1.08-.44A2.26,2.26,0,0,1,49.77,12a2.39,2.39,0,0,1,2.59-2.27,3.54,3.54,0,0,1,2.44,1l-.7.9A2.58,2.58,0,0,0,52.38,11c-.74,0-1.22.37-1.21.95s.62.83,1.27,1.08l1.07.42a2.19,2.19,0,0,1,1.63,2.09c0,1.27-1,2.35-2.77,2.39A4,4,0,0,1,49.52,16.81Z"/><path class="b" d="M57.48,10.09l4.66.74L62,12l-3.29-.53-.32,2,2.79.44L61,15.05l-2.79-.45-.36,2.3,3.4.54L61,18.6l-4.78-.76Z"/><path class="b" d="M63.16,15.1c.85-2.42,2.87-3.32,4.75-2.66a3.09,3.09,0,0,1,1.8,1.68l-1,.6a2.05,2.05,0,0,0-1.18-1.13c-1.2-.43-2.43.29-3,1.95s-.16,3,1.08,3.43a2.22,2.22,0,0,0,1.85-.21l.41,1.08a3.14,3.14,0,0,1-2.71.25C63.29,19.44,62.29,17.55,63.16,15.1Z"/><path class="b" d="M72.35,14.47l2.16,1.27c1.39.81,2.16,1.84,1.43,3.08a1.74,1.74,0,0,1-1.79.91l0,.05a1.79,1.79,0,0,1,.36,2.36c-.8,1.36-2.28,1.34-3.77.47l-2.34-1.38ZM71.14,21.6c1,.58,1.76.55,2.2-.21s.06-1.34-1-1.93l-1-.6L70.12,21Zm1.62-3.13c.95.55,1.56.42,1.91-.17s.09-1.16-.79-1.68L73,16.11,71.91,18Z"/><path class="b" d="M76.9,23.36l1.38-5.28,1.14,1-.65,2.08c-.2.59-.38,1.15-.58,1.77l0,0c.57-.3,1.11-.55,1.66-.85l2-1L83,22l-5,2.23-1.89,2.23L75,25.59Z"/><path class="b" d="M31.06,85.36c1.26-2.23,3.42-2.76,5.14-1.78a3.11,3.11,0,0,1,1.48,2L36.59,86a2,2,0,0,0-1-1.33C34.52,84,33.19,84.5,32.32,86s-.68,2.92.46,3.57a2.25,2.25,0,0,0,1.86.13l.21,1.12a3.12,3.12,0,0,1-2.71-.22C30.42,89.65,29.77,87.62,31.06,85.36Z"/><path class="b" d="M40,86.76,37.85,86l.39-1.1,5.58,2-.4,1.1-2.13-.76L39,93.51,37.72,93Z"/><path class="b" d="M44.68,87l4.67.85-.21,1.16-3.3-.6-.4,2.19,2.81.51L48,92.3l-2.81-.51L44.65,95l-1.38-.25Z"/><path class="b" d="M52.28,95.12c2-2.15,3.3-3.55,3.25-4.71a1.17,1.17,0,0,0-1.31-1.26,2,2,0,0,0-1.45.91l-.8-.73A3.12,3.12,0,0,1,54.35,88a2.23,2.23,0,0,1,2.51,2.24c.06,1.36-1.13,2.8-2.59,4.46a12.07,12.07,0,0,1,1.28-.13l1.87-.08,0,1.17-5.15.22Z"/><path class="b" d="M58.52,91.71c-.52-2.53.19-4.06,1.74-4.38s2.81.8,3.34,3.32-.18,4.12-1.73,4.44S59,94.23,58.52,91.71Zm3.78-.79c-.44-2.11-1.1-2.68-1.82-2.53s-1.11.93-.67,3,1.12,2.74,1.84,2.59S62.74,93,62.3,90.92Z"/><path class="b" d="M65.8,93.18c1.24-2.68,2-4.4,1.59-5.49a1.18,1.18,0,0,0-1.65-.78,2.06,2.06,0,0,0-1.08,1.32l-1-.43a3.11,3.11,0,0,1,1.85-2,2.23,2.23,0,0,1,3.09,1.32c.49,1.27-.19,3-1,5,.36-.18.82-.39,1.17-.53L70.48,91l.42,1.1-4.81,1.84Z"/><path class="b" d="M72.36,90.1l1.48-.85-2.52-4.34-1.22.72-.44-.76a4.8,4.8,0,0,0,1.21-1.43l.89-.52L75,88.55l1.3-.76.57,1-4,2.31Z"/></svg>